# xmcd
#
# Track frame offsets: 
#        182
#        10007
#        21787
#        35467
#        47607
#        57005
#        64925
#        77607
#        88900
#        103340
#        113425
#        125075
#        132372
#        142812
#        151425
#        159422
#        178172
#        190250
#
# Disc length: 2713 seconds
#
# Revision: 1
# Processed by: cddbd v1.5.2PL0 Copyright (c) Steve Scherf et al.
# Submitted via: ExactAudioCopyFreeDBPlugin 1.0
#
DISCID=eb0a9712
DTITLE=Alabama - 18 Great Songs
DYEAR=1993
DGENRE=Country
TTITLE0=My Sweet Country Home
TTITLE1=Try Me
TTITLE2=Flying Unlimited
TTITLE3=All American Woman
TTITLE4=Hanging Up My Travelling Shoes
TTITLE5=Tied To The Music
TTITLE6=I Go On Loving You
TTITLE7=I'll Be Here, Call On Me
TTITLE8=Make It With You In My Mind
TTITLE9=Music Moves Me Like A River
TTITLE10=Guess I'm Still In Love With You
TTITLE11=Busy Body
TTITLE12=Vacancy
TTITLE13=Backslider Blues
TTITLE14=Tonight Your Maid's Gonna Make The Rounds
TTITLE15=I Wanna Be With You Tonight
TTITLE16=Loving You Is Killing Me
TTITLE17=Patches
EXTD=
EXTT0=
EXTT1=
EXTT2=
EXTT3=
EXTT4=
EXTT5=
EXTT6=
EXTT7=
EXTT8=
EXTT9=
EXTT10=
EXTT11=
EXTT12=
EXTT13=
EXTT14=
EXTT15=
EXTT16=
EXTT17=
PLAYORDER=
